<?xml version="1.0" encoding="UTF-8" standalone="no"?>
<!-- Generator: Adobe Illustrator 28.0.0, SVG Export Plug-In . SVG Version: 6.00 Build 0)  -->

<svg
   version="1.1"
   id="Layer_1"
   x="0px"
   y="0px"
   viewBox="0 0 792 217"
   xml:space="preserve"
   sodipodi:docname="وزارة_الاتصالات_وتقنية_المعلومات_السعودية.svg"
   width="792"
   height="217"
   inkscape:version="1.3.2 (091e20e, 2023-11-25, custom)"
   xmlns:inkscape="http://www.inkscape.org/namespaces/inkscape"
   xmlns:sodipodi="http://sodipodi.sourceforge.net/DTD/sodipodi-0.dtd"
   xmlns="http://www.w3.org/2000/svg"
   xmlns:svg="http://www.w3.org/2000/svg"><defs
   id="defs208" /><sodipodi:namedview
   id="namedview208"
   pagecolor="#ffffff"
   bordercolor="#000000"
   borderopacity="0.25"
   inkscape:showpageshadow="2"
   inkscape:pageopacity="0.0"
   inkscape:pagecheckerboard="0"
   inkscape:deskcolor="#d1d1d1"
   inkscape:zoom="0.70710678"
   inkscape:cx="399.51533"
   inkscape:cy="-187.3833"
   inkscape:window-width="1920"
   inkscape:window-height="1009"
   inkscape:window-x="-8"
   inkscape:window-y="-8"
   inkscape:window-maximized="1"
   inkscape:current-layer="Layer_1" />
<style
   type="text/css"
   id="style1">
	.st0{fill:#000075;}
	.st1{fill:url(#SVGID_1_);}
	.st2{fill:url(#SVGID_00000126299244857517450200000001565497250036955272_);}
	.st3{fill:url(#SVGID_00000007404920996525115580000009684942932673516179_);}
	.st4{fill:url(#SVGID_00000035513664536123125580000003068872206450201482_);}
	.st5{fill:url(#SVGID_00000007404187122831652180000008701380277798236291_);}
	.st6{fill:url(#SVGID_00000088844719699814450160000003216930997269013391_);}
	.st7{fill:url(#SVGID_00000171713711346164046230000010393179294082304442_);}
	.st8{fill:url(#SVGID_00000155108614289943986590000008430485809743558558_);}
	.st9{fill:url(#SVGID_00000111184902110996835200000004337511194197520032_);}
	.st10{fill:url(#SVGID_00000052073337514826297080000005819035277011152263_);}
	.st11{fill:url(#SVGID_00000083060935528785293100000003375571487654854784_);}
	.st12{fill:url(#SVGID_00000087396130870193576850000013304193383939511724_);}
	.st13{fill:url(#SVGID_00000076569490752722914000000008863080818051734414_);}
	.st14{fill:url(#SVGID_00000183957100124223686600000016482706648001167271_);}
	.st15{fill:url(#SVGID_00000001645737132867355070000003392954630824694936_);}
	.st16{fill:url(#SVGID_00000047044221920849120660000005439292045303594130_);}
	.st17{fill:url(#SVGID_00000126288490899742878820000018128433896878735288_);}
	.st18{fill:url(#SVGID_00000145746349972412861450000013379875666354418058_);}
	.st19{fill:url(#SVGID_00000181799381904953221250000003922594485399416763_);}
	.st20{fill:url(#SVGID_00000067231961781107071740000016609357140558770319_);}
	.st21{fill:url(#SVGID_00000047751138058692546790000017232556692861210500_);}
	.st22{fill:url(#SVGID_00000055668230909528947580000012392558985903445928_);}
	.st23{fill:url(#SVGID_00000146471383772134315080000013130573826418857376_);}
	.st24{fill:url(#SVGID_00000021835901054007826020000000654297761690716837_);}
	.st25{fill:url(#SVGID_00000005972294397936209800000004028190469069155733_);}
	.st26{fill:url(#SVGID_00000011737621185100842250000016592450524008682369_);}
	.st27{fill:url(#SVGID_00000075882641036335943790000005369548612377005746_);}
	.st28{fill:url(#SVGID_00000019674447282179225670000016677337275366881449_);}
	.st29{fill:url(#SVGID_00000031181606570100853520000000510999555911531967_);}
	.st30{fill:url(#SVGID_00000042728088313497135960000016659095882798213022_);}
	.st31{fill:url(#SVGID_00000125573556465339388020000009701839469249854652_);}
</style>
<g
   id="g208"
   transform="translate(-104,-391.4)">
	<path
   class="st0"
   d="m 280.4,541.3 h -1.1 c -7.7,0 -13.6,3.2 -19.4,7.7 -0.9,-5.2 -1.2,-10.3 -1.2,-14.8 0,-5.1 0.4,-9.4 0.6,-12.2 2.2,1.4 2.8,4.2 2.8,6.7 0,2.1 -0.5,3.9 -0.7,4.7 2.3,-2.8 3,-5.6 3,-8.1 0,-2.8 -0.9,-5.1 -1.4,-6 3.6,2.9 4.2,6.6 4.2,9.4 0,0.6 0,1.3 -0.1,1.7 0.7,-1.4 1.3,-3.2 1.3,-5.2 0,-2.9 -1.2,-6.3 -4.4,-9.2 5,1.2 7,5.8 7,9.4 0,2.4 0,2.5 0.1,0.2 0.4,-1.2 0.5,-2.3 0.5,-3.2 0,-1.3 -0.2,-2.3 -0.6,-3.2 -1.4,-3.8 -5.3,-5.4 -7.2,-5.8 0.5,-0.1 0.9,-0.1 1.3,-0.1 2.9,0 4.7,0.9 5.8,2 0.8,0.7 1.3,1.4 1.5,1.7 -0.2,-1.4 -0.7,-2.6 -1.5,-3.6 -1.5,-1.9 -3.9,-2.8 -6.3,-2.8 -0.9,0 -1.9,0.2 -2.7,0.5 1.2,-1.7 3.1,-2.3 4.9,-2.3 0.8,0 1.6,0.2 2.1,0.5 -1.3,-1.5 -3.1,-2.3 -4.7,-2.3 -1.7,0 -3.6,0.9 -4.9,2.8 -0.2,-0.5 -0.6,-0.9 -0.7,-1.5 -0.5,-0.9 -0.7,-2 -0.9,-3 0,-0.1 -0.1,-0.2 -0.2,-0.2 -0.1,0 -0.2,0.1 -0.2,0.2 -0.2,1.1 -0.6,2.1 -0.9,3 -0.2,0.6 -0.6,1.1 -0.8,1.5 -1.3,-1.9 -3,-2.8 -4.7,-2.8 -1.7,0 -3.5,0.8 -4.7,2.4 0.6,-0.2 1.3,-0.5 2.2,-0.5 1.7,0 3.6,0.7 4.6,2.4 -0.8,-0.4 -1.7,-0.6 -2.8,-0.6 -2.2,0 -4.6,0.9 -6.2,2.7 -0.8,0.9 -1.3,2.1 -1.4,3.6 0.2,-0.4 0.6,-1.1 1.4,-1.7 1.1,-0.9 2.8,-2 5.7,-2 0.5,0 0.9,0 1.5,0.1 -1.9,0.2 -5.8,1.9 -7.2,5.8 -0.4,0.9 -0.6,2 -0.6,3.1 0,0.9 0.2,2.1 0.6,3.4 v -0.2 c 0.1,-3.6 2.1,-8.1 7.1,-9.3 -3.2,2.9 -4.5,6.2 -4.5,9.2 0,2.1 0.6,3.8 1.3,5.3 -0.1,-0.6 -0.1,-1.3 -0.1,-2 0,-2.7 0.6,-6.3 4.2,-9 -0.6,0.9 -1.5,3.1 -1.5,5.9 0,2.4 0.7,5.3 3,8.1 -0.4,-0.9 -0.8,-2.8 -0.8,-4.7 0,-2.6 0.6,-5.3 2.9,-6.7 0.2,2.8 0.6,7 0.6,11.9 0,4.5 -0.2,9.6 -1.2,14.9 -5.8,-4.5 -11.8,-7.7 -19.4,-7.7 h -1.1 c -3.9,0.2 -7.8,1.3 -10.6,2.9 l -0.1,0.1 c 0,0 0,0.1 0.1,0.1 v 0 c 2.7,-0.8 5.4,-1.3 8.2,-1.3 0.8,0 1.6,0 2.3,0.1 3.4,0.2 6.5,1.3 9.4,2.6 4,1.9 7.8,4.5 11.1,7.3 -2.1,1.7 -9.2,8.5 -11.5,9.7 -0.5,-0.6 -1.3,-1.1 -2.1,-1.1 -0.2,0 -0.4,0 -0.6,0.1 -0.9,0.2 -1.7,0.9 -2,2 -0.1,0.2 -0.1,0.5 -0.1,0.6 0,0.6 0.2,1.3 0.6,1.6 0.8,0.8 1.6,1.2 2.6,1.2 0.6,0 1.3,-0.2 2,-0.5 3.2,-1.3 7.3,-5.7 12.4,-10.3 0.5,-0.4 0.9,-0.8 1.3,-1.2 0.5,0.5 0.9,0.8 1.3,1.2 5.1,4.6 9.2,8.8 12.4,10.3 0.7,0.2 1.3,0.5 2,0.5 0.9,0 1.7,-0.4 2.6,-1.2 0.4,-0.4 0.6,-0.9 0.6,-1.6 0,-0.2 0,-0.5 -0.1,-0.6 -0.2,-0.9 -0.9,-1.7 -2,-2 -0.2,0 -0.4,-0.1 -0.6,-0.1 -0.9,0 -1.6,0.5 -2.1,1.1 -2.3,-1.2 -9.5,-8 -11.5,-9.7 3.4,-2.8 7,-5.4 11.1,-7.3 2.9,-1.3 6,-2.2 9.4,-2.6 0.8,-0.1 1.6,-0.1 2.3,-0.1 2.8,0 5.4,0.5 8.2,1.3 v 0 l 0.1,-0.1 c 0,0 0,-0.1 -0.1,-0.1 -2.8,-1.7 -6.6,-2.8 -10.5,-3 z"
   id="path1" />
	
		<linearGradient
   id="SVGID_1_"
   gradientUnits="userSpaceOnUse"
   x1="41.423302"
   y1="634.18958"
   x2="303.27951"
   y2="315.15439"
   gradientTransform="matrix(1,0.00314159,0.00314159,-1,-12.8504,928.0025)">
		<stop
   offset="0"
   style="stop-color:#00C200"
   id="stop1" />
		<stop
   offset="4.000000e-02"
   style="stop-color:#00C100"
   id="stop2" />
		<stop
   offset="0.1"
   style="stop-color:#00BD00"
   id="stop3" />
		<stop
   offset="0.17"
   style="stop-color:#00B704"
   id="stop4" />
		<stop
   offset="0.24"
   style="stop-color:#00AF52"
   id="stop5" />
		<stop
   offset="0.32"
   style="stop-color:#00A58C"
   id="stop6" />
		<stop
   offset="0.38"
   style="stop-color:#009CBD"
   id="stop7" />
		<stop
   offset="1"
   style="stop-color:#002375"
   id="stop8" />
	</linearGradient>
	<polygon
   class="st1"
   points="168.1,395.2 104,459.8 105.3,460.9 178.8,399.8 "
   id="polygon8"
   style="fill:url(#SVGID_1_)" />
	
		<linearGradient
   id="SVGID_00000019652939187034642300000007738592826265298068_"
   gradientUnits="userSpaceOnUse"
   x1="108.4209"
   y1="671.73419"
   x2="348.97989"
   y2="378.67029"
   gradientTransform="matrix(1,0.00314159,0.00314159,-1,-12.8504,928.0025)">
		<stop
   offset="0"
   style="stop-color:#00C200"
   id="stop9" />
		<stop
   offset="4.000000e-02"
   style="stop-color:#00C100"
   id="stop10" />
		<stop
   offset="0.1"
   style="stop-color:#00BD00"
   id="stop11" />
		<stop
   offset="0.17"
   style="stop-color:#00B704"
   id="stop12" />
		<stop
   offset="0.24"
   style="stop-color:#00AF52"
   id="stop13" />
		<stop
   offset="0.32"
   style="stop-color:#00A58C"
   id="stop14" />
		<stop
   offset="0.38"
   style="stop-color:#009CBD"
   id="stop15" />
		<stop
   offset="1"
   style="stop-color:#002375"
   id="stop16" />
	</linearGradient>
	<polygon
   style="fill:url(#SVGID_00000019652939187034642300000007738592826265298068_)"
   points="273.3,428.2 183.7,395.6 178.8,399.8 248.8,431.2 "
   id="polygon16" />
	
		<linearGradient
   id="SVGID_00000042727103079334899640000003033770483939926198_"
   gradientUnits="userSpaceOnUse"
   x1="87.488297"
   y1="654.53088"
   x2="328.0123"
   y2="361.5022"
   gradientTransform="matrix(1,0.00314159,0.00314159,-1,-12.8504,928.0025)">
		<stop
   offset="0"
   style="stop-color:#00C200"
   id="stop17" />
		<stop
   offset="4.000000e-02"
   style="stop-color:#00C100"
   id="stop18" />
		<stop
   offset="0.1"
   style="stop-color:#00BD00"
   id="stop19" />
		<stop
   offset="0.17"
   style="stop-color:#00B704"
   id="stop20" />
		<stop
   offset="0.24"
   style="stop-color:#00AF52"
   id="stop21" />
		<stop
   offset="0.32"
   style="stop-color:#00A58C"
   id="stop22" />
		<stop
   offset="0.38"
   style="stop-color:#009CBD"
   id="stop23" />
		<stop
   offset="1"
   style="stop-color:#002375"
   id="stop24" />
	</linearGradient>
	<polygon
   style="fill:url(#SVGID_00000042727103079334899640000003033770483939926198_)"
   points="183.7,395.6 171.9,391.4 168.1,395.2 178.8,399.8 "
   id="polygon24" />
	
		<linearGradient
   id="SVGID_00000077282807815220446550000012690086002579489152_"
   gradientUnits="userSpaceOnUse"
   x1="46.1488"
   y1="406.86139"
   x2="331.37561"
   y2="544.97638"
   gradientTransform="matrix(1,0.00314159,0.00314159,-1,-12.8504,928.0025)">
		<stop
   offset="0"
   style="stop-color:#00C200"
   id="stop25" />
		<stop
   offset="0.4"
   style="stop-color:#009CBD"
   id="stop26" />
		<stop
   offset="0.52"
   style="stop-color:#0086AF"
   id="stop27" />
		<stop
   offset="0.78"
   style="stop-color:#004E8E"
   id="stop28" />
		<stop
   offset="0.95"
   style="stop-color:#002375"
   id="stop29" />
	</linearGradient>
	<polygon
   style="fill:url(#SVGID_00000077282807815220446550000012690086002579489152_)"
   points="202.6,436.8 191.3,438.2 193.1,445.2 210.7,444.5 "
   id="polygon29" />
	
		<linearGradient
   id="SVGID_00000115498581147473522000000003075330966643733900_"
   gradientUnits="userSpaceOnUse"
   x1="53.108002"
   y1="392.48611"
   x2="338.33481"
   y2="530.60107"
   gradientTransform="matrix(1,0.00314159,0.00314159,-1,-12.8504,928.0025)">
		<stop
   offset="0"
   style="stop-color:#00C200"
   id="stop30" />
		<stop
   offset="0.4"
   style="stop-color:#009CBD"
   id="stop31" />
		<stop
   offset="0.52"
   style="stop-color:#0086AF"
   id="stop32" />
		<stop
   offset="0.78"
   style="stop-color:#004E8E"
   id="stop33" />
		<stop
   offset="0.95"
   style="stop-color:#002375"
   id="stop34" />
	</linearGradient>
	<polygon
   style="fill:url(#SVGID_00000115498581147473522000000003075330966643733900_)"
   points="222.7,444.1 273,442.1 248.8,431.2 213.4,435.5 "
   id="polygon34" />
	
		<linearGradient
   id="SVGID_00000080896089876347916870000018239795641463692975_"
   gradientUnits="userSpaceOnUse"
   x1="40.209499"
   y1="419.09131"
   x2="325.4715"
   y2="557.20642"
   gradientTransform="matrix(1,0.00314159,0.00314159,-1,-12.8504,928.0025)">
		<stop
   offset="0"
   style="stop-color:#00C200"
   id="stop35" />
		<stop
   offset="0.4"
   style="stop-color:#009CBD"
   id="stop36" />
		<stop
   offset="0.52"
   style="stop-color:#0086AF"
   id="stop37" />
		<stop
   offset="0.78"
   style="stop-color:#004E8E"
   id="stop38" />
		<stop
   offset="0.95"
   style="stop-color:#002375"
   id="stop39" />
	</linearGradient>
	<polygon
   style="fill:url(#SVGID_00000080896089876347916870000018239795641463692975_)"
   points="141.1,447.4 184.5,445.6 183.3,439.1 139.5,444.4 "
   id="polygon39" />
	
		<linearGradient
   id="SVGID_00000003066600252855455400000013830794785856209310_"
   gradientUnits="userSpaceOnUse"
   x1="55.610199"
   y1="387.34052"
   x2="340.8371"
   y2="525.45563"
   gradientTransform="matrix(1,0.00314159,0.00314159,-1,-12.8504,928.0025)">
		<stop
   offset="0"
   style="stop-color:#00C200"
   id="stop40" />
		<stop
   offset="0.4"
   style="stop-color:#009CBD"
   id="stop41" />
		<stop
   offset="0.52"
   style="stop-color:#0086AF"
   id="stop42" />
		<stop
   offset="0.78"
   style="stop-color:#004E8E"
   id="stop43" />
		<stop
   offset="0.95"
   style="stop-color:#002375"
   id="stop44" />
	</linearGradient>
	<polygon
   style="fill:url(#SVGID_00000003066600252855455400000013830794785856209310_)"
   points="273.3,428.2 248.8,431.2 273,442.1 "
   id="polygon44" />
	
		<linearGradient
   id="SVGID_00000075137319196519173930000001666901331378935706_"
   gradientUnits="userSpaceOnUse"
   x1="72.869003"
   y1="344.4585"
   x2="365.44089"
   y2="486.12311"
   gradientTransform="matrix(1,0.00314159,0.00314159,-1,-12.8504,928.0025)">
		<stop
   offset="0"
   style="stop-color:#00C200"
   id="stop45" />
		<stop
   offset="0.4"
   style="stop-color:#009CBD"
   id="stop46" />
		<stop
   offset="0.5"
   style="stop-color:#0082AD"
   id="stop47" />
		<stop
   offset="0.73"
   style="stop-color:#00508F"
   id="stop48" />
		<stop
   offset="0.9"
   style="stop-color:#002F7C"
   id="stop49" />
		<stop
   offset="1"
   style="stop-color:#002375"
   id="stop50" />
	</linearGradient>
	<polygon
   style="fill:url(#SVGID_00000075137319196519173930000001666901331378935706_)"
   points="209.2,564.3 141.1,447.4 135.6,447.5 218.4,608.6 "
   id="polygon50" />
	
		<linearGradient
   id="SVGID_00000026157231759922517590000002791676823521376420_"
   gradientUnits="userSpaceOnUse"
   x1="33.647099"
   y1="425.4328"
   x2="326.21899"
   y2="567.09741"
   gradientTransform="matrix(1,0.00314159,0.00314159,-1,-12.8504,928.0025)">
		<stop
   offset="0"
   style="stop-color:#00C200"
   id="stop51" />
		<stop
   offset="0.4"
   style="stop-color:#009CBD"
   id="stop52" />
		<stop
   offset="0.5"
   style="stop-color:#0082AD"
   id="stop53" />
		<stop
   offset="0.73"
   style="stop-color:#00508F"
   id="stop54" />
		<stop
   offset="0.9"
   style="stop-color:#002F7C"
   id="stop55" />
		<stop
   offset="1"
   style="stop-color:#002375"
   id="stop56" />
	</linearGradient>
	<polygon
   style="fill:url(#SVGID_00000026157231759922517590000002791676823521376420_)"
   points="139.5,444.4 135.6,447.5 141.1,447.4 "
   id="polygon56" />
	
		<linearGradient
   id="SVGID_00000152265791205308961660000008872445708224366480_"
   gradientUnits="userSpaceOnUse"
   x1="106.9945"
   y1="657.67621"
   x2="327.45139"
   y2="264.83911"
   gradientTransform="matrix(1,0.00314159,0.00314159,-1,-12.8504,928.0025)">
		<stop
   offset="0.17"
   style="stop-color:#009CBD"
   id="stop57" />
		<stop
   offset="0.29"
   style="stop-color:#0096B9"
   id="stop58" />
		<stop
   offset="0.46"
   style="stop-color:#0083AE"
   id="stop59" />
		<stop
   offset="0.66"
   style="stop-color:#00679D"
   id="stop60" />
		<stop
   offset="0.88"
   style="stop-color:#003E84"
   id="stop61" />
		<stop
   offset="1"
   style="stop-color:#002375"
   id="stop62" />
	</linearGradient>
	<polygon
   style="fill:url(#SVGID_00000152265791205308961660000008872445708224366480_)"
   points="191.3,438.2 187.2,421.9 177.7,412.8 183.3,439.1 "
   id="polygon62" />
	
		<linearGradient
   id="SVGID_00000176041034783923445210000003560417126706525075_"
   gradientUnits="userSpaceOnUse"
   x1="87.612503"
   y1="646.80682"
   x2="308.06931"
   y2="253.9697"
   gradientTransform="matrix(1,0.00314159,0.00314159,-1,-12.8504,928.0025)">
		<stop
   offset="0.17"
   style="stop-color:#009CBD"
   id="stop63" />
		<stop
   offset="0.29"
   style="stop-color:#0096B9"
   id="stop64" />
		<stop
   offset="0.46"
   style="stop-color:#0083AE"
   id="stop65" />
		<stop
   offset="0.66"
   style="stop-color:#00679D"
   id="stop66" />
		<stop
   offset="0.88"
   style="stop-color:#003E84"
   id="stop67" />
		<stop
   offset="1"
   style="stop-color:#002375"
   id="stop68" />
	</linearGradient>
	<polygon
   style="fill:url(#SVGID_00000176041034783923445210000003560417126706525075_)"
   points="184.5,445.6 209.2,564.3 232.6,604.5 193.1,445.2 "
   id="polygon68" />
	
		<linearGradient
   id="SVGID_00000145050549012878339450000006584704151828923530_"
   gradientUnits="userSpaceOnUse"
   x1="104.186"
   y1="656.11182"
   x2="324.64291"
   y2="263.27481"
   gradientTransform="matrix(1,0.00314159,0.00314159,-1,-12.8504,928.0025)">
		<stop
   offset="0.17"
   style="stop-color:#009CBD"
   id="stop69" />
		<stop
   offset="0.29"
   style="stop-color:#0096B9"
   id="stop70" />
		<stop
   offset="0.46"
   style="stop-color:#0083AE"
   id="stop71" />
		<stop
   offset="0.66"
   style="stop-color:#00679D"
   id="stop72" />
		<stop
   offset="0.88"
   style="stop-color:#003E84"
   id="stop73" />
		<stop
   offset="1"
   style="stop-color:#002375"
   id="stop74" />
	</linearGradient>
	<polygon
   style="fill:url(#SVGID_00000145050549012878339450000006584704151828923530_)"
   points="191.3,438.2 183.3,439.1 184.5,445.6 193.1,445.2 "
   id="polygon74" />
	
		<linearGradient
   id="SVGID_00000078041131944911906290000006691384510711892368_"
   gradientUnits="userSpaceOnUse"
   x1="62.945999"
   y1="632.96259"
   x2="283.40289"
   y2="240.1256"
   gradientTransform="matrix(1,0.00314159,0.00314159,-1,-12.8504,928.0025)">
		<stop
   offset="0.17"
   style="stop-color:#009CBD"
   id="stop75" />
		<stop
   offset="0.29"
   style="stop-color:#0096B9"
   id="stop76" />
		<stop
   offset="0.46"
   style="stop-color:#0083AE"
   id="stop77" />
		<stop
   offset="0.66"
   style="stop-color:#00679D"
   id="stop78" />
		<stop
   offset="0.88"
   style="stop-color:#003E84"
   id="stop79" />
		<stop
   offset="1"
   style="stop-color:#002375"
   id="stop80" />
	</linearGradient>
	<polygon
   style="fill:url(#SVGID_00000078041131944911906290000006691384510711892368_)"
   points="218.4,608.6 232.6,604.5 209.2,564.3 "
   id="polygon80" />
	
		<linearGradient
   id="SVGID_00000023985333239076327200000009706581014781831563_"
   gradientUnits="userSpaceOnUse"
   x1="401.18561"
   y1="343.59009"
   x2="-10.7696"
   y2="650.81702"
   gradientTransform="matrix(1,0.00314159,0.00314159,-1,-12.8504,928.0025)">
		<stop
   offset="0"
   style="stop-color:#00C200"
   id="stop81" />
		<stop
   offset="0.34"
   style="stop-color:#009CBD"
   id="stop82" />
		<stop
   offset="1"
   style="stop-color:#002375"
   id="stop83" />
	</linearGradient>
	<polygon
   style="fill:url(#SVGID_00000023985333239076327200000009706581014781831563_)"
   points="331.5,544.9 222.7,444.1 210.7,444.5 320.6,550.4 "
   id="polygon83" />
	
		<linearGradient
   id="SVGID_00000046340874946507757770000002451509016656742545_"
   gradientUnits="userSpaceOnUse"
   x1="408.80911"
   y1="353.81339"
   x2="-3.1110001"
   y2="661.04022"
   gradientTransform="matrix(1,0.00314159,0.00314159,-1,-12.8504,928.0025)">
		<stop
   offset="0"
   style="stop-color:#00C200"
   id="stop84" />
		<stop
   offset="0.34"
   style="stop-color:#009CBD"
   id="stop85" />
		<stop
   offset="1"
   style="stop-color:#002375"
   id="stop86" />
	</linearGradient>
	<polygon
   style="fill:url(#SVGID_00000046340874946507757770000002451509016656742545_)"
   points="187.2,421.9 202.6,436.8 213.4,435.5 183.7,408 "
   id="polygon86" />
	
		<linearGradient
   id="SVGID_00000014604112293687409530000011760944290231375536_"
   gradientUnits="userSpaceOnUse"
   x1="395.7753"
   y1="336.35291"
   x2="-16.144899"
   y2="643.57971"
   gradientTransform="matrix(1,0.00314159,0.00314159,-1,-12.8504,928.0025)">
		<stop
   offset="0"
   style="stop-color:#00C200"
   id="stop87" />
		<stop
   offset="0.34"
   style="stop-color:#009CBD"
   id="stop88" />
		<stop
   offset="1"
   style="stop-color:#002375"
   id="stop89" />
	</linearGradient>
	<polygon
   style="fill:url(#SVGID_00000014604112293687409530000011760944290231375536_)"
   points="325.7,555.4 332.6,562.2 345.9,558 336.5,549.4 "
   id="polygon89" />
	
		<linearGradient
   id="SVGID_00000148633327335332723200000016297717323164156076_"
   gradientUnits="userSpaceOnUse"
   x1="407.17099"
   y1="351.61761"
   x2="-4.7491002"
   y2="658.84442"
   gradientTransform="matrix(1,0.00314159,0.00314159,-1,-12.8504,928.0025)">
		<stop
   offset="0"
   style="stop-color:#00C200"
   id="stop90" />
		<stop
   offset="0.34"
   style="stop-color:#009CBD"
   id="stop91" />
		<stop
   offset="1"
   style="stop-color:#002375"
   id="stop92" />
	</linearGradient>
	<polygon
   style="fill:url(#SVGID_00000148633327335332723200000016297717323164156076_)"
   points="222.7,444.1 213.4,435.5 202.6,436.8 210.7,444.5 "
   id="polygon92" />
	
		<linearGradient
   id="SVGID_00000033332026481211945720000004962980694616660143_"
   gradientUnits="userSpaceOnUse"
   x1="409.5835"
   y1="354.8692"
   x2="-2.3366001"
   y2="662.09613"
   gradientTransform="matrix(1,0.00314159,0.00314159,-1,-12.8504,928.0025)">
		<stop
   offset="0"
   style="stop-color:#00C200"
   id="stop93" />
		<stop
   offset="0.34"
   style="stop-color:#009CBD"
   id="stop94" />
		<stop
   offset="1"
   style="stop-color:#002375"
   id="stop95" />
	</linearGradient>
	<polygon
   style="fill:url(#SVGID_00000033332026481211945720000004962980694616660143_)"
   points="183.7,408 177.7,412.8 187.2,421.9 "
   id="polygon95" />
	
		<linearGradient
   id="SVGID_00000062161092350586079550000013995088931964807579_"
   gradientUnits="userSpaceOnUse"
   x1="395.01389"
   y1="382.8396"
   x2="78.614502"
   y2="248.8013"
   gradientTransform="matrix(1,0.00314159,0.00314159,-1,-12.8504,928.0025)">
		<stop
   offset="0"
   style="stop-color:#00C200"
   id="stop96" />
		<stop
   offset="0.22"
   style="stop-color:#009CBD"
   id="stop97" />
		<stop
   offset="1"
   style="stop-color:#002375"
   id="stop98" />
	</linearGradient>
	<polygon
   style="fill:url(#SVGID_00000062161092350586079550000013995088931964807579_)"
   points="332.6,562.2 288.5,576.2 244.5,600.9 343.9,573 "
   id="polygon98" />
	
		<linearGradient
   id="SVGID_00000151545138771984576420000010295518278452443557_"
   gradientUnits="userSpaceOnUse"
   x1="395.82739"
   y1="380.92941"
   x2="79.428101"
   y2="246.8559"
   gradientTransform="matrix(1,0.00314159,0.00314159,-1,-12.8504,928.0025)">
		<stop
   offset="0"
   style="stop-color:#00C200"
   id="stop99" />
		<stop
   offset="0.22"
   style="stop-color:#009CBD"
   id="stop100" />
		<stop
   offset="1"
   style="stop-color:#002375"
   id="stop101" />
	</linearGradient>
	<polygon
   style="fill:url(#SVGID_00000151545138771984576420000010295518278452443557_)"
   points="343.9,573 345.9,558 332.6,562.2 "
   id="polygon101" />
	
		<linearGradient
   id="SVGID_00000160890142883557645530000010201742187395597758_"
   gradientUnits="userSpaceOnUse"
   x1="412.30551"
   y1="406.38379"
   x2="43.120201"
   y2="249.9588"
   gradientTransform="matrix(1,0.00314159,0.00314159,-1,-12.8504,928.0025)">
		<stop
   offset="0"
   style="stop-color:#00C200"
   id="stop102" />
		<stop
   offset="0.26"
   style="stop-color:#009CBD"
   id="stop103" />
		<stop
   offset="0.27"
   style="stop-color:#0099BB"
   id="stop104" />
		<stop
   offset="0.51"
   style="stop-color:#00679D"
   id="stop105" />
		<stop
   offset="0.72"
   style="stop-color:#004287"
   id="stop106" />
		<stop
   offset="0.89"
   style="stop-color:#002B7A"
   id="stop107" />
		<stop
   offset="1"
   style="stop-color:#002375"
   id="stop108" />
	</linearGradient>
	<polygon
   style="fill:url(#SVGID_00000160890142883557645530000010201742187395597758_)"
   points="288.5,576.2 325.7,555.4 320.6,550.4 239.2,591.8 "
   id="polygon108" />
	
		<linearGradient
   id="SVGID_00000013174425253640624250000008247841781048636293_"
   gradientUnits="userSpaceOnUse"
   x1="410.80859"
   y1="409.96991"
   x2="41.5881"
   y2="253.5099"
   gradientTransform="matrix(1,0.00314159,0.00314159,-1,-12.8504,928.0025)">
		<stop
   offset="0"
   style="stop-color:#00C200"
   id="stop109" />
		<stop
   offset="0.26"
   style="stop-color:#009CBD"
   id="stop110" />
		<stop
   offset="0.27"
   style="stop-color:#0099BB"
   id="stop111" />
		<stop
   offset="0.51"
   style="stop-color:#00679D"
   id="stop112" />
		<stop
   offset="0.72"
   style="stop-color:#004287"
   id="stop113" />
		<stop
   offset="0.89"
   style="stop-color:#002B7A"
   id="stop114" />
		<stop
   offset="1"
   style="stop-color:#002375"
   id="stop115" />
	</linearGradient>
	<polygon
   style="fill:url(#SVGID_00000013174425253640624250000008247841781048636293_)"
   points="341,540 331.5,544.9 336.5,549.4 344.1,545.1 "
   id="polygon115" />
	
		<linearGradient
   id="SVGID_00000108990683820441141070000011437555879765652866_"
   gradientUnits="userSpaceOnUse"
   x1="409.7446"
   y1="412.48792"
   x2="40.5242"
   y2="256.02789"
   gradientTransform="matrix(1,0.00314159,0.00314159,-1,-12.8504,928.0025)">
		<stop
   offset="0"
   style="stop-color:#00C200"
   id="stop116" />
		<stop
   offset="0.26"
   style="stop-color:#009CBD"
   id="stop117" />
		<stop
   offset="0.27"
   style="stop-color:#0099BB"
   id="stop118" />
		<stop
   offset="0.51"
   style="stop-color:#00679D"
   id="stop119" />
		<stop
   offset="0.72"
   style="stop-color:#004287"
   id="stop120" />
		<stop
   offset="0.89"
   style="stop-color:#002B7A"
   id="stop121" />
		<stop
   offset="1"
   style="stop-color:#002375"
   id="stop122" />
	</linearGradient>
	<polygon
   style="fill:url(#SVGID_00000108990683820441141070000011437555879765652866_)"
   points="352.8,540.2 377,526.7 380.2,520.1 349.7,535.6 "
   id="polygon122" />
	
		<linearGradient
   id="SVGID_00000039096365468956680430000016054869190775138999_"
   gradientUnits="userSpaceOnUse"
   x1="411.21741"
   y1="408.98111"
   x2="42.032101"
   y2="252.521"
   gradientTransform="matrix(1,0.00314159,0.00314159,-1,-12.8504,928.0025)">
		<stop
   offset="0"
   style="stop-color:#00C200"
   id="stop123" />
		<stop
   offset="0.26"
   style="stop-color:#009CBD"
   id="stop124" />
		<stop
   offset="0.27"
   style="stop-color:#0099BB"
   id="stop125" />
		<stop
   offset="0.51"
   style="stop-color:#00679D"
   id="stop126" />
		<stop
   offset="0.72"
   style="stop-color:#004287"
   id="stop127" />
		<stop
   offset="0.89"
   style="stop-color:#002B7A"
   id="stop128" />
		<stop
   offset="1"
   style="stop-color:#002375"
   id="stop129" />
	</linearGradient>
	<polygon
   style="fill:url(#SVGID_00000039096365468956680430000016054869190775138999_)"
   points="331.5,544.9 320.6,550.4 325.7,555.4 336.5,549.4 "
   id="polygon129" />
	
		<linearGradient
   id="SVGID_00000047046839776466651730000000182049189852256702_"
   gradientUnits="userSpaceOnUse"
   x1="414.7428"
   y1="400.69641"
   x2="45.5224"
   y2="244.2363"
   gradientTransform="matrix(1,0.00314159,0.00314159,-1,-12.8504,928.0025)">
		<stop
   offset="0"
   style="stop-color:#00C200"
   id="stop130" />
		<stop
   offset="0.26"
   style="stop-color:#009CBD"
   id="stop131" />
		<stop
   offset="0.27"
   style="stop-color:#0099BB"
   id="stop132" />
		<stop
   offset="0.51"
   style="stop-color:#00679D"
   id="stop133" />
		<stop
   offset="0.72"
   style="stop-color:#004287"
   id="stop134" />
		<stop
   offset="0.89"
   style="stop-color:#002B7A"
   id="stop135" />
		<stop
   offset="1"
   style="stop-color:#002375"
   id="stop136" />
	</linearGradient>
	<polygon
   style="fill:url(#SVGID_00000047046839776466651730000000182049189852256702_)"
   points="239.2,591.8 244.5,600.9 288.5,576.2 "
   id="polygon136" />
	
		<linearGradient
   id="SVGID_00000111894935615652443000000005320593234725143223_"
   gradientUnits="userSpaceOnUse"
   x1="418.85461"
   y1="395.24911"
   x2="10.9058"
   y2="222.37691"
   gradientTransform="matrix(1,0.00314159,0.00314159,-1,-12.8504,928.0025)">
		<stop
   offset="0"
   style="stop-color:#00C200"
   id="stop137" />
		<stop
   offset="0.34"
   style="stop-color:#009CBD"
   id="stop138" />
		<stop
   offset="1"
   style="stop-color:#002375"
   id="stop139" />
	</linearGradient>
	<polygon
   style="fill:url(#SVGID_00000111894935615652443000000005320593234725143223_)"
   points="383.5,523 377,526.7 363.5,555 373.6,569.3 "
   id="polygon139" />
	
		<linearGradient
   id="SVGID_00000124846330892733877380000015373083066876820128_"
   gradientUnits="userSpaceOnUse"
   x1="410.68979"
   y1="414.535"
   x2="2.7409"
   y2="241.6628"
   gradientTransform="matrix(1,0.00314159,0.00314159,-1,-12.8504,928.0025)">
		<stop
   offset="0"
   style="stop-color:#00C200"
   id="stop140" />
		<stop
   offset="0.34"
   style="stop-color:#009CBD"
   id="stop141" />
		<stop
   offset="1"
   style="stop-color:#002375"
   id="stop142" />
	</linearGradient>
	<polygon
   style="fill:url(#SVGID_00000124846330892733877380000015373083066876820128_)"
   points="383.5,523 380.2,520.1 377,526.7 "
   id="polygon142" />
	
		<linearGradient
   id="SVGID_00000081610188801086332990000004580293861194891166_"
   gradientUnits="userSpaceOnUse"
   x1="416.35681"
   y1="396.37991"
   x2="12.836"
   y2="225.4055"
   gradientTransform="matrix(1,0.00314159,0.00314159,-1,-12.8504,928.0025)">
		<stop
   offset="0"
   style="stop-color:#00C200"
   id="stop143" />
		<stop
   offset="0.31"
   style="stop-color:#009CBD"
   id="stop144" />
		<stop
   offset="1"
   style="stop-color:#002375"
   id="stop145" />
	</linearGradient>
	<polygon
   style="fill:url(#SVGID_00000081610188801086332990000004580293861194891166_)"
   points="363.5,555 352.8,540.2 344.1,545.1 357.7,567.3 "
   id="polygon145" />
	
		<linearGradient
   id="SVGID_00000016037281215273239310000003320950561797397386_"
   gradientUnits="userSpaceOnUse"
   x1="388.73279"
   y1="461.50369"
   x2="-14.788"
   y2="290.52921"
   gradientTransform="matrix(1,0.00314159,0.00314159,-1,-12.8504,928.0025)">
		<stop
   offset="0"
   style="stop-color:#00C200"
   id="stop146" />
		<stop
   offset="0.31"
   style="stop-color:#009CBD"
   id="stop147" />
		<stop
   offset="1"
   style="stop-color:#002375"
   id="stop148" />
	</linearGradient>
	<polygon
   style="fill:url(#SVGID_00000016037281215273239310000003320950561797397386_)"
   points="349.7,535.6 287.6,448.4 285.7,449.6 341,540 "
   id="polygon148" />
	
		<linearGradient
   id="SVGID_00000165202189667452259020000005526955559043272377_"
   gradientUnits="userSpaceOnUse"
   x1="410.28061"
   y1="410.6749"
   x2="6.7598"
   y2="239.66521"
   gradientTransform="matrix(1,0.00314159,0.00314159,-1,-12.8504,928.0025)">
		<stop
   offset="0"
   style="stop-color:#00C200"
   id="stop149" />
		<stop
   offset="0.31"
   style="stop-color:#009CBD"
   id="stop150" />
		<stop
   offset="1"
   style="stop-color:#002375"
   id="stop151" />
	</linearGradient>
	<polygon
   style="fill:url(#SVGID_00000165202189667452259020000005526955559043272377_)"
   points="352.8,540.2 349.7,535.6 341,540 344.1,545.1 "
   id="polygon151" />
	
		<linearGradient
   id="SVGID_00000029037227707648169780000000654561062299538310_"
   gradientUnits="userSpaceOnUse"
   x1="421.3732"
   y1="384.52289"
   x2="17.8524"
   y2="213.54849"
   gradientTransform="matrix(1,0.00314159,0.00314159,-1,-12.8504,928.0025)">
		<stop
   offset="0"
   style="stop-color:#00C200"
   id="stop152" />
		<stop
   offset="0.31"
   style="stop-color:#009CBD"
   id="stop153" />
		<stop
   offset="1"
   style="stop-color:#002375"
   id="stop154" />
	</linearGradient>
	<polygon
   style="fill:url(#SVGID_00000029037227707648169780000000654561062299538310_)"
   points="357.7,567.3 373.6,569.3 363.5,555 "
   id="polygon154" />
	<path
   class="st0"
   d="m 434.1,552 v -21.5 h 2.4 V 552 Z m 32.3,0 h 2.4 v -21.5 h -2.4 z m 291.8,0 h 2.4 v -21.5 h -2.4 z m 68.6,-21.5 h -2.4 V 552 h 2.4 z M 480.7,542 v -2.8 c -2.3,-0.7 -3.9,-1.4 -3.9,-3.2 0,-1.8 1.7,-3.2 3.9,-3.5 v -2.4 c -3.9,0.2 -6.6,2.6 -6.6,5.8 0,4.1 3.5,5.2 6.6,6.1 z m 1.4,-9.4 c 1.9,0.2 3.6,0.9 4.6,2.4 l 0.2,0.4 1.7,-1.9 -0.2,-0.2 c -1.5,-1.7 -3.8,-2.8 -6.4,-3 z m -1.4,17.4 c -2.8,-0.2 -4.6,-1.9 -5.4,-2.8 l -0.2,-0.4 -1.6,1.9 0.2,0.2 c 1.7,2.1 4.3,3.2 7.2,3.4 V 550 Z m 1.4,-10.3 v 2.8 c 2.4,0.8 4.3,1.6 4.3,3.8 0,1.7 -1.2,3.6 -4.3,3.7 v 2.4 c 5.1,-0.2 7,-3.4 7,-6.2 0.1,-4.4 -3.7,-5.6 -7,-6.5 z m 33,-9.2 h -2.4 V 552 h 2.4 z m 1.4,2.3 h 3.9 c 2.6,0 4.3,1.7 4.3,4 0,2.3 -1.7,4 -4.3,4 h -3.9 v 2.2 h 5.3 c 3.4,-0.5 5.4,-2.9 5.4,-6.4 0,-3.8 -2.7,-6.5 -6.6,-6.5 h -4.2 c 0.1,0.2 0.1,2.7 0.1,2.7 z m 6.5,12 h -3 l 4.7,7.3 h 3.2 z m 9,-14.3 h -3 l 8.6,12.4 v 9.2 h 2.6 v -9.6 z m 9,10.9 7.5,-10.8 h -3 l -5.9,8.7 z m -121.3,7 7.3,-17.9 h -2.6 l -6,14.8 z m -8.8,-17.9 h -2.6 l 8.8,21.5 h 2.6 z m 15.2,6.2 V 552 h 2.6 v -21.5 0 z m -19.4,-6.2 v 0 21.5 h 2.4 v -15.4 z m 264.7,17.9 5.4,-13.3 1.9,-4.6 h -2.6 l -6,14.8 z m 6.4,-11.7 V 552 h 2.6 v -21.5 0 z m -15.3,-6.2 h -2.6 l 8.8,21.2 0.1,0.2 h 2.6 z m -4.1,0 v 0 21.5 h 2.4 v -15.4 z m 30.6,0 h -2.6 l 0.2,0.4 8.6,20.9 0.1,0.2 h 2.6 z m 8.9,17.9 5.4,-13.3 1.9,-4.6 h -2.6 l -6,14.8 z m 6.3,-11.7 V 552 h 2.6 v -21.5 0 z m -19.3,-6.2 v 0 21.5 h 2.4 v -15.4 z m -187.2,0 h -5.4 v 2.4 h 5.4 z m 5.4,0 v 2.4 h 5.3 v -2.4 z m -4,21.5 h 2.4 v -21.5 h -2.4 z m 70.8,-2 c -4.2,-0.5 -7,-3.8 -7,-8.7 0,-4.9 2.8,-8.2 7,-8.7 v -2.3 c -5.7,0.5 -9.6,4.9 -9.6,11 0,6.1 3.9,10.5 9.6,11 z m 1.5,-19.7 v 2.4 c 4.3,0.2 7.3,3.7 7.3,8.7 0,5 -2.9,8.5 -7.3,8.8 v 2.3 c 5.8,-0.2 10,-4.7 10,-11 -0.1,-6.5 -4.2,-11 -10,-11.2 z m 18.1,0.2 v 2.4 h 10 v -2.4 z m -1.5,0 h -2.4 V 552 h 2.4 z m 1.5,11.7 h 9.7 v -2.4 h -9.7 z m 39.5,4.7 -0.2,0.2 c -1.3,1.7 -3.2,2.8 -5.4,2.8 v 2.4 c 3,-0.1 5.4,-1.3 7.5,-3.8 l 0.2,-0.4 z m -5.5,-14.4 c 2.1,0.1 4.3,1.2 5.4,2.8 l 0.2,0.2 2.1,-1.3 -0.2,-0.4 c -1.9,-2.4 -4.4,-3.6 -7.4,-3.8 v 2.4 c 0,0.1 -0.1,0.1 -0.1,0.1 z m -1.6,17.5 c -4.3,-0.6 -7.2,-4 -7.2,-8.7 0,-4.7 2.9,-8.1 7.2,-8.7 v -2.4 c -5.8,0.6 -9.8,5.1 -9.8,11 0,5.9 3.9,10.5 9.8,11 0,0 0,-2.2 0,-2.2 z m 21.9,0 c -4.2,-0.5 -7,-3.8 -7,-8.7 0,-4.9 2.8,-8.2 7,-8.7 v -2.3 c -5.7,0.5 -9.6,4.9 -9.6,11 0,6.1 3.9,10.5 9.6,11 z m 1.6,-19.7 v 2.4 c 4.3,0.2 7.3,3.7 7.3,8.7 0,5 -2.9,8.5 -7.3,8.8 v 2.3 c 5.8,-0.2 10,-4.7 10,-11 -0.2,-6.5 -4.2,-11 -10,-11.2 z M 841.2,550 c -4.2,-0.5 -7,-3.8 -7,-8.7 0,-4.9 2.8,-8.2 7,-8.7 v -2.3 c -5.7,0.5 -9.6,4.9 -9.6,11 0,6.1 3.9,10.5 9.6,11 z m 1.4,-19.7 v 2.4 c 4.3,0.2 7.3,3.7 7.3,8.7 0,5 -2.9,8.5 -7.3,8.8 v 2.3 c 5.8,-0.2 10,-4.7 10,-11 0,-6.5 -4,-11 -10,-11.2 z m -122.2,19.4 c -3.4,-0.2 -5.2,-2.4 -5.2,-6.2 v -13.1 h -2.6 v 13.2 c 0,5.2 2.8,8.5 7.8,8.7 z m 6.6,-19.2 v 13.1 c 0,3.7 -1.9,5.9 -5.1,6.2 v 2.4 c 4.9,-0.2 7.7,-3.5 7.7,-8.7 v -13.2 z m 48.4,19.5 c -4.3,-0.6 -7.2,-4 -7.2,-8.7 0,-4.7 2.9,-8.1 7.2,-8.7 v -2.4 c -5.8,0.6 -9.8,5.1 -9.8,11 0,5.9 3.9,10.5 9.8,11 0,0 0,-2.2 0,-2.2 z m 1.4,-17.5 c 2.1,0.1 4.3,1.2 5.4,2.8 l 0.2,0.2 2.1,-1.3 -0.2,-0.4 c -1.9,-2.4 -4.4,-3.6 -7.4,-3.8 v 2.4 c 0,0.1 -0.1,0.1 -0.1,0.1 z m 5.7,14.4 -0.2,0.2 c -1.3,1.7 -3.2,2.8 -5.4,2.8 v 2.4 c 3,-0.1 5.4,-1.3 7.5,-3.8 l 0.2,-0.4 z m -337,-16.4 h -3.1 l 15.2,21.5 h 3.2 z m 14.8,18.3 v -18.3 h -2.4 v 14.8 z M 442.8,533.7 V 552 h 2.4 v -14.8 z m 366.5,-3.1 h -5.4 v 2.4 h 5.4 z m 4.1,0 h -2.6 v 21.5 h 2.4 z m 1.4,0 v 2.4 h 5.3 v -2.4 z m -62.3,18.3 v -18.4 h -2.4 v 14.9 z m -14.9,-18.4 h -3 l 15.2,21.5 h 3.2 z m -2.7,3.2 V 552 h 2.4 v -14.8 z m 125,-3.2 h -3 l 15.2,21.5 h 3.2 z m 14.9,18.4 v -18.4 h -2.4 v 14.8 z M 857.3,533.7 V 552 h 2.4 v -14.8 z m -58.5,10.2 h -5.1 l -0.9,2.4 h 7.1 z m -0.5,-11.8 -1.3,3.4 6.6,16.4 h 2.8 z m -0.8,-1.6 h -2.7 l -8.6,21 -0.2,0.6 h 2.8 z"
   id="path154" />
	<path
   class="st0"
   d="m 886.2,542 v -2.8 c -2.3,-0.7 -3.9,-1.4 -3.9,-3.2 0,-1.8 1.7,-3.2 3.9,-3.5 v -2.4 c -3.9,0.2 -6.6,2.6 -6.6,5.8 0,4.2 3.4,5.2 6.6,6.1 z"
   id="path155" />
	<path
   class="st0"
   d="m 887.5,532.6 c 1.9,0.2 3.6,0.9 4.6,2.4 l 0.2,0.4 1.7,-1.9 -0.1,-0.2 c -1.5,-1.7 -3.8,-2.8 -6.4,-3 z"
   id="path156" />
	<path
   class="st0"
   d="m 886.2,550 c -2.8,-0.2 -4.6,-1.9 -5.4,-2.8 l -0.2,-0.4 -1.6,1.9 0.2,0.2 c 1.7,2.1 4.3,3.2 7.2,3.4 V 550 Z"
   id="path157" />
	<path
   class="st0"
   d="m 887.5,539.7 v 2.8 c 2.4,0.8 4.3,1.6 4.3,3.8 0,1.7 -1.2,3.6 -4.3,3.7 v 2.4 c 5.1,-0.2 7,-3.4 7,-6.2 0.1,-4.4 -3.7,-5.6 -7,-6.5 z"
   id="path158" />
	<rect
   x="480.10001"
   y="565.59998"
   class="st0"
   width="2.4000001"
   height="21.5"
   id="rect158" />
	<rect
   x="631.20001"
   y="565.59998"
   class="st0"
   width="2.4000001"
   height="21.5"
   id="rect159" />
	<polygon
   class="st0"
   points="884.9,587.1 887.3,587.1 887.3,577.5 879.3,565.6 876.3,565.6 884.9,577.9 "
   id="polygon159" />
	<polygon
   class="st0"
   points="887,574.3 888.4,576.4 896,565.6 893,565.6 "
   id="polygon160" />
	<polygon
   class="st0"
   points="580.1,586.9 580.2,587.1 582.8,587.1 573.9,565.6 571.4,565.6 571.5,566 "
   id="polygon161" />
	<polygon
   class="st0"
   points="582.9,583.5 588.3,570.3 590.2,565.6 587.6,565.6 581.6,580.5 "
   id="polygon162" />
	<polygon
   class="st0"
   points="572.3,587.1 572.3,571.7 569.9,565.6 569.9,587.1 "
   id="polygon163" />
	<polygon
   class="st0"
   points="591.7,587.1 591.7,565.6 589.2,571.9 589.2,587.1 "
   id="polygon164" />
	<rect
   x="618.59998"
   y="565.59998"
   class="st0"
   width="2.4000001"
   height="21.5"
   id="rect164" />
	<rect
   x="622.40002"
   y="565.59998"
   class="st0"
   width="5.3000002"
   height="2.4000001"
   id="rect165" />
	<rect
   x="611.70001"
   y="565.59998"
   class="st0"
   width="5.4000001"
   height="2.4000001"
   id="rect166" />
	<path
   class="st0"
   d="m 536.2,585 c -4.2,-0.5 -7,-3.8 -7,-8.7 0,-4.9 2.8,-8.2 7,-8.7 v -2.3 c -5.7,0.5 -9.6,4.9 -9.6,11 0,6.1 3.9,10.5 9.6,11 z"
   id="path166" />
	<path
   class="st0"
   d="m 537.7,565.3 v 2.4 c 4.3,0.2 7.3,3.7 7.3,8.7 0,5 -2.9,8.5 -7.3,8.8 v 2.3 c 5.8,-0.2 10,-4.7 10,-11 -0.2,-6.5 -4.2,-11 -10,-11.2 z"
   id="path167" />
	<path
   class="st0"
   d="m 647.3,585 c -4.2,-0.5 -7,-3.8 -7,-8.7 0,-4.9 2.8,-8.2 7,-8.7 v -2.3 c -5.7,0.5 -9.6,4.9 -9.6,11 0,6.1 3.9,10.5 9.6,11 z"
   id="path168" />
	<path
   class="st0"
   d="m 648.8,565.3 v 2.4 c 4.3,0.2 7.3,3.7 7.3,8.7 0,5 -2.9,8.5 -7.3,8.8 v 2.3 c 5.8,-0.2 10,-4.7 10,-11 0,-6.2 -4.1,-11 -10,-11.2 z"
   id="path169" />
	<rect
   x="714.79999"
   y="574.90002"
   class="st0"
   width="9.6999998"
   height="2.4000001"
   id="rect169" />
	<rect
   x="714.79999"
   y="584.70001"
   class="st0"
   width="10"
   height="2.4000001"
   id="rect170" />
	<polygon
   class="st0"
   points="425.5,587.1 417.5,567.3 416.1,570.7 422.6,587.1 "
   id="polygon170" />
	<polygon
   class="st0"
   points="418.9,581.6 417.9,579.1 412.7,579.1 411.7,581.6 "
   id="polygon171" />
	<polygon
   class="st0"
   points="416.6,565.6 413.9,565.6 405.3,586.6 405.2,587.1 408,587.1 "
   id="polygon172" />
	<polygon
   class="st0"
   points="443,580.5 445.4,583.9 445.4,565.6 443,565.6 "
   id="polygon173" />
	<polygon
   class="st0"
   points="445.9,587.1 430.5,565.6 427.5,565.6 442.6,587.1 "
   id="polygon174" />
	<polygon
   class="st0"
   points="430.5,572.2 427.9,568.8 427.9,587.1 430.5,587.1 "
   id="polygon175" />
	<polygon
   class="st0"
   points="665.1,572.4 662.6,568.9 662.6,587.1 665.1,587.1 "
   id="polygon176" />
	<polygon
   class="st0"
   points="677.7,580.5 680.2,584.1 680.2,565.6 677.7,565.6 "
   id="polygon177" />
	<polygon
   class="st0"
   points="677.3,587.1 680.6,587.1 665.1,565.6 662.2,565.6 677.2,587 "
   id="polygon178" />
	<polygon
   class="st0"
   points="787.4,580.5 790.1,583.9 790.1,565.6 787.4,565.6 "
   id="polygon179" />
	<polygon
   class="st0"
   points="790.4,587.1 775,565.6 772,565.6 787.1,587.1 "
   id="polygon180" />
	<polygon
   class="st0"
   points="774.9,572.4 772.5,568.9 772.5,587.1 774.9,587.1 "
   id="polygon181" />
	<polygon
   class="st0"
   points="502.4,580.5 504.9,583.9 504.9,565.6 502.4,565.6 "
   id="polygon182" />
	<polygon
   class="st0"
   points="489.8,572.4 487.4,568.9 487.4,587.1 489.8,587.1 "
   id="polygon183" />
	<polygon
   class="st0"
   points="502.1,587.1 505.4,587.1 490,565.6 486.8,565.6 502,587 "
   id="polygon184" />
	<rect
   x="450.29999"
   y="565.59998"
   class="st0"
   width="2.4000001"
   height="21.5"
   id="rect184" />
	<path
   class="st0"
   d="m 457.4,565.6 h -3 v 2.4 h 3 c 5,0 8.2,3.2 8.2,8.2 0,5 -3.2,8.6 -8.2,8.6 h -3 v 2.4 h 3 c 6.5,0 10.9,-4.4 10.9,-11 -0.1,-6.3 -4.4,-10.6 -10.9,-10.6 z"
   id="path184" />
	<rect
   x="509.70001"
   y="565.59998"
   class="st0"
   width="2.4000001"
   height="21.5"
   id="rect185" />
	<rect
   x="513.70001"
   y="565.59998"
   class="st0"
   width="10"
   height="2.4000001"
   id="rect186" />
	<rect
   x="513.70001"
   y="574.90002"
   class="st0"
   width="9.6999998"
   height="2.4000001"
   id="rect187" />
	<path
   class="st0"
   d="m 554.9,568 h 3.9 c 2.6,0 4.3,1.7 4.3,4 0,2.3 -1.7,4 -4.3,4 h -3.9 v 2.2 h 5.3 c 3.4,-0.5 5.4,-2.9 5.4,-6.4 0,-3.8 -2.7,-6.5 -6.6,-6.5 h -4.2 c 0.1,0.1 0.1,2.7 0.1,2.7 z"
   id="path187" />
	<polygon
   class="st0"
   points="566.3,587.1 561.3,579.8 558.3,579.8 563.2,587.1 "
   id="polygon187" />
	<rect
   x="551"
   y="565.59998"
   class="st0"
   width="2.4000001"
   height="21.5"
   id="rect188" />
	<polygon
   class="st0"
   points="608.2,581.6 607.3,579.1 602.2,579.1 601.1,581.6 "
   id="polygon188" />
	<polygon
   class="st0"
   points="614.8,587.1 606.9,567.3 605.6,570.6 612.1,587.1 "
   id="polygon189" />
	<polygon
   class="st0"
   points="605.9,565.6 603.4,565.6 594.8,586.6 594.3,587.1 597.3,587.1 "
   id="polygon190" />
	<polygon
   class="st0"
   points="752.6,565.6 750.2,565.6 750.2,577.2 763.6,577.2 763.6,574.9 752.6,574.9 "
   id="polygon191" />
	<rect
   x="750.20001"
   y="578.70001"
   class="st0"
   width="2.4000001"
   height="8.5"
   id="rect191" />
	<path
   class="st0"
   d="m 867,567.7 c 2.2,0.1 4.3,1.2 5.4,2.8 l 0.2,0.2 2.1,-1.3 -0.2,-0.4 c -1.9,-2.4 -4.5,-3.7 -7.5,-3.8 z"
   id="path191" />
	<polygon
   class="st0"
   points="874.9,575.9 865.5,575.9 865.5,578 874.9,578 "
   id="polygon192" />
	<path
   class="st0"
   d="m 872.5,579.5 v 3.2 c -1.2,1.3 -3.2,2.2 -5.4,2.3 v 2.4 c 3.2,-0.1 5.8,-1.3 7.8,-3.5 l 0.1,-0.1 v -4.3 z"
   id="path192" />
	<path
   class="st0"
   d="m 865.5,585 c -4.3,-0.6 -7.1,-4 -7.1,-8.7 0,-4.7 2.9,-8.1 7.1,-8.7 v -2.4 c -5.8,0.6 -9.7,5.1 -9.7,11 0,5.9 3.9,10.4 9.7,11 0,0 0,-2.2 0,-2.2 z"
   id="path193" />
	<rect
   x="822.70001"
   y="584.70001"
   class="st0"
   width="8.6000004"
   height="2.4000001"
   id="rect193" />
	<rect
   x="698.20001"
   y="565.59998"
   class="st0"
   width="2.4000001"
   height="21.5"
   id="rect194" />
	<rect
   x="702.09998"
   y="565.59998"
   class="st0"
   width="5.3000002"
   height="2.4000001"
   id="rect195" />
	<rect
   x="691.5"
   y="565.59998"
   class="st0"
   width="5.4000001"
   height="2.4000001"
   id="rect196" />
	<rect
   x="710.90002"
   y="565.59998"
   class="st0"
   width="2.4000001"
   height="21.5"
   id="rect197" />
	<rect
   x="714.79999"
   y="574.90002"
   class="st0"
   width="9.6999998"
   height="2.4000001"
   id="rect198" />
	<rect
   x="714.79999"
   y="565.59998"
   class="st0"
   width="9.6999998"
   height="2.4000001"
   id="rect199" />
	<rect
   x="765.09998"
   y="565.59998"
   class="st0"
   width="2.4000001"
   height="21.5"
   id="rect200" />
	<rect
   x="818.59998"
   y="565.59998"
   class="st0"
   width="2.4000001"
   height="21.5"
   id="rect201" />
	<path
   class="st0"
   d="m 841.2,585 c -4.2,-0.5 -7,-3.8 -7,-8.7 0,-4.9 2.8,-8.2 7,-8.7 v -2.3 c -5.7,0.5 -9.6,4.9 -9.6,11 0,6.1 3.9,10.5 9.6,11 z"
   id="path201" />
	<path
   class="st0"
   d="m 842.6,565.3 v 2.4 c 4.3,0.2 7.3,3.7 7.3,8.7 0,5 -2.9,8.5 -7.3,8.8 v 2.3 c 5.8,-0.2 10,-4.7 10,-11 0,-6.5 -4.1,-11 -10,-11.2 z"
   id="path202" />
	<path
   class="st0"
   d="m 803.5,585 c -4.2,-0.5 -7,-3.8 -7,-8.7 0,-4.9 2.8,-8.2 7,-8.7 v -2.3 c -5.7,0.5 -9.6,4.9 -9.6,11 0,6.1 3.9,10.5 9.6,11 z"
   id="path203" />
	<path
   class="st0"
   d="m 805,565.3 v 2.4 c 4.3,0.2 7.3,3.7 7.3,8.7 0,5 -2.9,8.5 -7.3,8.8 v 2.3 c 5.8,-0.2 10,-4.7 10,-11 -0.1,-6.5 -4.2,-11 -10,-11.2 z"
   id="path204" />
	<path
   class="st0"
   d="m 737.9,585 c -4.3,-0.6 -7.2,-4 -7.2,-8.7 0,-4.7 2.9,-8.1 7.2,-8.7 v -2.4 c -5.8,0.6 -9.8,5.1 -9.8,11 0,5.9 3.9,10.5 9.8,11 0,0 0,-2.2 0,-2.2 z"
   id="path205" />
	<path
   class="st0"
   d="m 739.3,567.7 c 2.1,0.1 4.3,1.2 5.4,2.8 l 0.2,0.2 2.1,-1.3 -0.2,-0.4 c -1.9,-2.4 -4.4,-3.6 -7.4,-3.8 v 2.4 c 0,0.1 -0.1,0.1 -0.1,0.1 z"
   id="path206" />
	<path
   class="st0"
   d="m 744.9,582 -0.2,0.2 c -1.3,1.7 -3.2,2.8 -5.4,2.8 v 2.4 c 3,-0.1 5.4,-1.3 7.5,-3.8 l 0.2,-0.4 z"
   id="path207" />
	<path
   class="st0"
   d="m 664.3,459.7 c 0.7,0.9 0.9,2 0.9,3.6 v 5.1 h 2.4 V 463 c 0,-2 -0.6,-3.7 -1.6,-4.9 -1.4,-1.7 -3,-2.3 -5.3,-2.3 h -11 v 2.4 H 661 c 1.4,0 2.6,0.7 3.3,1.5 z m 83.7,-6.2 h -2.4 v 15.1 h 2.4 z m 54.5,35.1 h -2.4 v 14.9 h 2.4 z m -57.7,-40.4 h -2.6 v 3.6 h 2.6 z m 38.9,-0.1 h -2.4 v 24.4 h 2.4 z m -21.2,24.4 c 3.2,0 5.8,-0.7 7.7,-2.2 2,-1.4 2.6,-4 2.6,-5.8 v -16.3 h -2.4 v 16 c 0,2.1 -0.6,3.5 -1.9,4.4 -1.3,0.9 -3,1.4 -5,1.4 h -9.7 l 0.2,2.4 z m 0.1,-20.9 h -2.4 v 16.8 h 2.4 z m -316,0 h -2.4 v 16.8 h 2.4 z m 181.4,41.8 0.2,-0.4 -0.2,-0.2 c -0.5,-0.4 -0.9,-0.7 -1.4,-1.1 l -0.2,-0.2 -5,12.1 h 2.7 z m 20.5,-40 h -2.4 v 15.1 h 2.4 z m -39.2,38.3 c -0.6,0.4 -0.9,0.8 -1.4,1.2 l -0.2,0.2 4.2,10.5 h 2.8 l -5,-12.1 z m -14.4,11.9 v -20.2 h -2.4 v 20 h 2.4 z m 29,-10.5 0.9,-2.3 c -2.4,-1.3 -4.7,-2.1 -7,-2.1 -2.2,0 -4.6,0.8 -7,2.1 l 0.9,2.3 c 2,-1.3 3.9,-2 6,-2 2.2,0.1 4.5,0.9 6.2,2 z M 726,487 v -3.6 h -2.6 V 487 Z M 467.9,448.1 h -2.4 v 20.3 h 2.4 z M 748,469.9 H 465.4 v 2.4 H 748 Z m 2.9,-21.7 h -2.6 v 3.6 h 2.6 z m 98.4,55.4 h 2.4 v -14.9 h -2.4 z m 2.4,-20.3 h -2.6 v 3.6 h 2.6 z m 17,3.7 v -3.6 h -2.6 v 3.6 z m -12.5,-38.9 h -2.4 v 24.4 h 2.4 z m 9.6,30.4 c 4.3,0 4.9,-3.4 4.9,-6.4 v -18.7 h -2.4 v 18.7 c 0,2.3 -0.4,3.8 -2.2,3.8 -0.4,0 -0.7,-0.1 -1.1,-0.2 l -0.5,-0.2 -0.9,2.3 0.5,0.2 c 0.4,0.4 1.1,0.5 1.7,0.5 z m 24.4,-6 v 0 l 0.1,-2.4 h -0.9 c -6.2,0 -8.2,-3.8 -8.2,-7 0,-4.3 4.3,-7 8.2,-7 h 0.9 v -2.4 h -0.1 c -7.1,0 -11.7,3.7 -11.7,9.5 0,5.8 4.3,9.3 11.7,9.3 z m -19.5,-24.2 h -2.6 v 3.6 h 2.6 z m -45.3,24.2 v 0 l 0.1,-2.4 h -1.1 c -4.7,0 -8.1,-2.8 -8.1,-7 0,-4.2 4.2,-7 8.1,-7 h 1.1 v -2.4 h -0.1 c -6.9,0 -11.5,3.9 -11.5,9.5 0.1,4.4 3.1,9.3 11.5,9.3 z m 13.5,6 c 4.3,0 4.9,-3.4 4.9,-6.4 v -18.7 h -2.4 v 18.7 c 0,2.3 -0.4,3.8 -2.2,3.8 -0.4,0 -0.7,-0.1 -1.1,-0.2 l -0.5,-0.2 -0.9,2.3 0.5,0.2 c 0.4,0.4 1.1,0.5 1.7,0.5 z m -9.4,-6 v -19 h -2.4 v 19 z m -7.5,31.1 v -14.9 h -2.4 v 14.9 z m 1.4,-55.3 h -2.6 v 3.6 h 2.6 z m 6.1,0 H 827 v 3.6 h 2.6 v -3.6 z m 13.6,38.8 h 2.6 v -3.6 h -2.6 z m -2.3,16.6 c -1.3,-1.3 -2.6,-3 -2.6,-5.4 0,-4.5 4,-7 8,-7 h 1.7 v -2.4 h -0.8 c -7,0 -11.5,3.6 -11.5,9.5 0,2.1 0.6,3.9 1.7,5.4 z M 822,483.4 h -2.6 v 3.6 h 2.6 z m -105.3,14.7 c 0,4.6 3,9.5 11.5,9.5 h 0.1 v -2.4 h -0.9 c -4.7,0 -8.1,-2.8 -8.1,-7 0,-4.2 4.2,-7 8.1,-7 h 0.9 v -2.4 h -0.1 c -6.7,-0.2 -11.5,3.8 -11.5,9.3 z m 79.9,15.7 h 2.6 v -3.6 h -2.6 z m -113.7,-6.2 h 2.4 v -24.1 h -2.4 z m 46.8,-20.5 h 2.6 v -3.6 h -2.6 z m 0,20.5 h 2.4 v -18.9 h -2.4 z m -72.3,-2.4 c 0.1,-0.2 0.2,-0.5 0.2,-0.7 0,-0.1 0.1,-0.2 0.1,-0.2 l 0.1,-0.2 c 0.1,-0.2 0.2,-0.4 0.2,-0.6 0.2,-0.9 0.5,-2 0.5,-3 0,-2 -0.6,-3.8 -1.4,-5.4 -0.9,-1.6 -2.4,-2.9 -4.2,-3.7 -1.2,-0.6 -2.4,-0.8 -3.7,-0.9 v 2.4 c 3.9,0.5 6.9,3.5 6.9,7.7 0,4.2 -2.8,7.1 -6.9,7.5 v 2.4 c 1.4,-0.1 2.8,-0.5 3.9,-1.1 h 0.1 c 0,0 0.1,-0.1 0.2,-0.1 l 0.2,-0.1 c 0.2,-0.1 0.4,-0.2 0.6,-0.4 l 0.2,-0.1 c 0.2,-0.2 0.5,-0.2 0.6,-0.5 0.2,-0.1 0.2,-0.2 0.5,-0.4 l 0.1,-0.1 0.2,-0.2 c 0.6,-0.6 1.1,-1.3 1.5,-2 z m 14.5,-1.5 h 2.4 v -20.2 h -2.4 z m -13.1,1.6 c -0.4,0.6 -0.6,1.3 -1.1,1.7 l -0.4,0.6 h 17 v -2.4 h -15.5 z m 232.9,2.1 v 0.2 c 0,0 -0.1,0.2 -0.1,0.4 -0.2,2.1 -1.7,3.4 -4.5,3.4 -1.7,0 -3.1,-0.7 -4.6,-1.5 l -0.5,-0.2 -1.2,2.2 0.5,0.2 c 1.7,0.9 3.4,1.7 5.7,1.7 4.4,0 7.3,-2.4 7.3,-6.3 v -18.7 h -2.6 z m -1.5,0.2 v 0 l 0.1,-2.4 h -0.9 c -6.2,0 -8.2,-3.7 -8.2,-7 0,-4.3 4.3,-7 8.2,-7 h 0.9 v -2.4 h -0.1 c -7.1,0 -11.7,3.7 -11.7,9.5 0,5.7 4.3,9.3 11.7,9.3 z m -87.4,6.2 h 2.6 v -3.6 h -2.6 z m 88.9,-60.3 v 19.1 h -0.1 c -0.2,2.1 -1.7,3.4 -4.5,3.4 -1.7,0 -3.1,-0.7 -4.6,-1.5 l -0.5,-0.2 -1.2,2.2 0.5,0.2 c 1.7,0.9 3.4,1.7 5.7,1.7 4.4,0 7.3,-2.4 7.3,-6.4 v -18.7 z m -158.1,54.1 h 138.3 v -2.4 H 733.6 Z m 138.7,-20.5 h 2.6 v -3.6 h -2.6 z m -2.8,16.6 h 2.4 v -14.9 h -2.4 z M 421.7,483.4 v 3.6 h 2.6 v -3.6 z M 411,468.6 c -1.3,-0.9 -1.9,-2.3 -1.9,-4.4 v -7.3 h -2.4 v 7.7 c 0,1.7 0.7,4.4 2.6,5.8 2.1,1.6 4,2.2 7.7,2.2 h 16.8 v -2.4 h -17.9 c -1.9,-0.2 -3.6,-0.7 -4.9,-1.6 z m 13.2,-20.3 h -2.6 v 3.6 h 2.6 z m 7,55.4 h 2.4 v -14.9 h -2.4 z m 0.1,-35.1 h 2.4 v -15.1 h -2.4 z m -13.2,-20.3 h -2.7 v 3.6 h 2.6 v -3.6 z m 0,35.1 h -2.7 v 3.6 h 2.6 v -3.6 z m 36,-13.1 c 2,-1.4 2.6,-4 2.6,-5.8 v -16.3 h -2.4 v 16 c 0,2.1 -0.6,3.5 -1.9,4.4 -1.1,0.8 -2.7,1.3 -4.4,1.4 h -10.3 l 0.2,2.4 h 8.5 c 3.3,0.1 5.8,-0.6 7.7,-2.1 z M 411,503.7 c -1.3,-0.9 -1.9,-2.3 -1.9,-4.4 V 492 h -2.4 v 7.7 c 0,1.7 0.7,4.3 2.6,5.8 2.1,1.6 4,2.2 7.7,2.2 h 16.7 v -2.4 H 416 c -2,-0.1 -3.7,-0.6 -5,-1.6 z m 135.7,3.9 v 0 l 0.1,-2.4 h -1.1 c -6.2,0 -8.2,-3.7 -8.2,-7 0,-4.3 4.3,-7 8.2,-7 h 1.1 v -2.4 h -0.1 c -7.1,0 -11.7,3.7 -11.7,9.5 0,5.8 4.4,9.3 11.7,9.3 z m 1.6,-0.2 v 0.4 c -0.2,2.2 -1.9,3.5 -4.6,3.5 -1.7,0 -3.1,-0.7 -4.6,-1.5 l -0.5,-0.2 -1.2,2.2 0.5,0.2 c 1.7,0.9 3.4,1.7 5.7,1.7 3.6,0 7.3,-0.6 7.3,-4.9 v -20 h -2.4 z M 443,503.6 v -20.2 h -2.4 v 20 h 2.4 z m 196.7,-7.8 v 0 c -0.7,1.5 -1.1,3.1 -1.1,4.7 0,5.4 4,9.7 9.3,10 v -2.6 c -3.8,-0.2 -6.9,-3.6 -6.9,-7.5 0,-3.9 2.9,-7.3 6.9,-7.7 v -2.4 c -0.7,0 -1.5,0.1 -2.1,0.4 -2.7,0.7 -4.9,2.5 -6.1,5.1 z m -1.5,9.5 -0.1,-0.2 h -85.9 v 2.4 h 87.5 l -0.5,-0.6 c -0.2,-0.4 -0.5,-0.9 -1,-1.6 z m -127.2,0 -0.1,-0.2 h -70.5 v 2.4 h 72.1 l -0.4,-0.6 c -0.3,-0.4 -0.6,-1.1 -1.1,-1.6 z m 14.8,-14.1 c -1.2,-0.6 -2.4,-0.8 -3.7,-0.9 v 2.4 c 3.9,0.5 6.9,3.5 6.9,7.7 0,4.2 -2.8,7.1 -6.9,7.5 v 2.4 c 1.4,-0.1 2.8,-0.5 3.9,-1.1 h 0.1 c 0,0 0.1,-0.1 0.2,-0.1 l 0.1,-0.1 c 0.2,-0.1 0.5,-0.2 0.6,-0.4 0,0 0.1,-0.1 0.2,-0.1 0.2,-0.2 0.5,-0.2 0.6,-0.5 0.2,-0.1 0.2,-0.2 0.6,-0.5 l 0.2,-0.2 c 0.6,-0.6 1.1,-1.3 1.5,-2 l 0.2,-0.6 v 0 c 0.1,-0.2 0.2,-0.5 0.2,-0.7 0,-0.1 0.1,-0.2 0.1,-0.2 l 0.1,-0.1 c 0.1,-0.2 0.2,-0.4 0.2,-0.6 0.2,-0.9 0.5,-2 0.5,-3 0,-2 -0.6,-3.8 -1.4,-5.4 -1,-1.3 -2.4,-2.6 -4.2,-3.5 z m -13.3,4.6 v 0 c -0.7,1.5 -1.1,3.1 -1.1,4.7 0,5.4 4,9.7 9.3,10 v -2.6 c -3.8,-0.2 -6.9,-3.6 -6.9,-7.5 0,-3.9 2.9,-7.3 6.9,-7.7 v -2.4 c -0.7,0 -1.5,0.1 -2.1,0.4 -2.6,0.7 -4.9,2.5 -6.1,5.1 z"
   id="path208" />
</g>
</svg>
