<svg xmlns="http://www.w3.org/2000/svg" xmlns:xlink="http://www.w3.org/1999/xlink" width="1920" zoomAndPan="magnify" viewBox="0 0 1440 809.999993" height="1080" preserveAspectRatio="xMidYMid meet" version="1.0"><defs><clipPath id="9caaf5c0ca"><path d="M 589.484375 308.371094 L 845.980469 308.371094 L 845.980469 621 L 589.484375 621 Z M 589.484375 308.371094 " clip-rule="nonzero"/></clipPath><clipPath id="b07dfdc1ec"><path d="M 735.035156 308.371094 L 828.28125 308.371094 C 834.152344 308.371094 839.636719 311.296875 842.90625 316.171875 C 846.179688 321.046875 846.804688 327.230469 844.582031 332.664062 L 736.628906 596.261719 C 730.609375 610.953125 716.308594 620.554688 700.429688 620.554688 L 607.1875 620.554688 C 601.316406 620.554688 595.832031 617.628906 592.558594 612.753906 C 589.289062 607.878906 588.660156 601.695312 590.882812 596.261719 L 698.835938 332.664062 C 704.855469 317.96875 719.15625 308.371094 735.035156 308.371094 Z M 735.035156 308.371094 " clip-rule="nonzero"/></clipPath><clipPath id="efe8e56e12"><path d="M 589 308.371094 L 846 308.371094 L 846 620.660156 L 589 620.660156 Z M 589 308.371094 " clip-rule="nonzero"/></clipPath><clipPath id="ffe88eb51e"><path d="M 735.035156 308.371094 L 828.273438 308.371094 C 834.144531 308.371094 839.628906 311.296875 842.902344 316.171875 C 846.171875 321.046875 846.800781 327.230469 844.578125 332.664062 L 736.625 596.253906 C 730.609375 610.945312 716.308594 620.542969 700.429688 620.542969 L 607.1875 620.542969 C 601.316406 620.542969 595.832031 617.621094 592.558594 612.746094 C 589.289062 607.871094 588.660156 601.6875 590.886719 596.253906 L 698.835938 332.664062 C 704.851562 317.96875 719.15625 308.371094 735.035156 308.371094 Z M 735.035156 308.371094 " clip-rule="nonzero"/></clipPath><clipPath id="8cd5070837"><path d="M 772 308.371094 L 1028.421875 308.371094 L 1028.421875 621 L 772 621 Z M 772 308.371094 " clip-rule="nonzero"/></clipPath><clipPath id="a4ffb9a982"><path d="M 917.480469 308.371094 L 1010.722656 308.371094 C 1016.59375 308.371094 1022.078125 311.296875 1025.351562 316.171875 C 1028.621094 321.046875 1029.25 327.230469 1027.023438 332.664062 L 919.074219 596.261719 C 913.054688 610.953125 898.753906 620.554688 882.875 620.554688 L 789.628906 620.554688 C 783.757812 620.554688 778.273438 617.628906 775.003906 612.753906 C 771.730469 607.878906 771.101562 601.695312 773.328125 596.261719 L 881.28125 332.664062 C 887.296875 317.96875 901.601562 308.371094 917.480469 308.371094 Z M 917.480469 308.371094 " clip-rule="nonzero"/></clipPath><clipPath id="cc985c736b"><path d="M 772 308.371094 L 1029 308.371094 L 1029 620.660156 L 772 620.660156 Z M 772 308.371094 " clip-rule="nonzero"/></clipPath><clipPath id="4bf7ba36da"><path d="M 917.476562 308.371094 L 1010.71875 308.371094 C 1016.589844 308.371094 1022.074219 311.296875 1025.347656 316.171875 C 1028.617188 321.046875 1029.246094 327.230469 1027.019531 332.664062 L 919.070312 596.253906 C 913.054688 610.945312 898.75 620.542969 882.871094 620.542969 L 789.632812 620.542969 C 783.761719 620.542969 778.277344 617.621094 775.003906 612.746094 C 771.734375 607.871094 771.105469 601.6875 773.328125 596.253906 L 881.28125 332.664062 C 887.296875 317.96875 901.597656 308.371094 917.476562 308.371094 Z M 917.476562 308.371094 " clip-rule="nonzero"/></clipPath><clipPath id="99af3dadba"><path d="M 949.742188 308.371094 L 1206.234375 308.371094 L 1206.234375 621 L 949.742188 621 Z M 949.742188 308.371094 " clip-rule="nonzero"/></clipPath><clipPath id="35c8de956a"><path d="M 1095.289062 308.371094 L 1188.535156 308.371094 C 1194.40625 308.371094 1199.890625 311.296875 1203.164062 316.171875 C 1206.433594 321.046875 1207.0625 327.230469 1204.835938 332.664062 L 1096.882812 596.261719 C 1090.867188 610.953125 1076.5625 620.554688 1060.6875 620.554688 L 967.441406 620.554688 C 961.570312 620.554688 956.085938 617.628906 952.8125 612.753906 C 949.542969 607.878906 948.914062 601.695312 951.140625 596.261719 L 1059.09375 332.664062 C 1065.109375 317.96875 1079.414062 308.371094 1095.289062 308.371094 Z M 1095.289062 308.371094 " clip-rule="nonzero"/></clipPath><clipPath id="b32936d747"><path d="M 949.183594 308.371094 L 1207 308.371094 L 1207 620.660156 L 949.183594 620.660156 Z M 949.183594 308.371094 " clip-rule="nonzero"/></clipPath><clipPath id="77a2a1cb79"><path d="M 1095.289062 308.371094 L 1188.53125 308.371094 C 1194.402344 308.371094 1199.886719 311.296875 1203.15625 316.171875 C 1206.429688 321.046875 1207.058594 327.230469 1204.832031 332.664062 L 1096.882812 596.253906 C 1090.863281 610.945312 1076.5625 620.542969 1060.683594 620.542969 L 967.441406 620.542969 C 961.570312 620.542969 956.085938 617.621094 952.816406 612.746094 C 949.542969 607.871094 948.917969 601.6875 951.140625 596.253906 L 1059.089844 332.664062 C 1065.109375 317.96875 1079.410156 308.371094 1095.289062 308.371094 Z M 1095.289062 308.371094 " clip-rule="nonzero"/></clipPath><clipPath id="7ebdc36a9c"><path d="M 365.316406 416.820312 L 621.8125 416.820312 L 621.8125 729 L 365.316406 729 Z M 365.316406 416.820312 " clip-rule="nonzero"/></clipPath><clipPath id="31032ce153"><path d="M 510.867188 416.820312 L 604.109375 416.820312 C 609.980469 416.820312 615.464844 419.742188 618.738281 424.617188 C 622.007812 429.492188 622.636719 435.679688 620.414062 441.109375 L 512.460938 704.707031 C 506.441406 719.402344 492.140625 729 476.261719 729 L 383.015625 729 C 377.144531 729 371.660156 726.074219 368.390625 721.199219 C 365.117188 716.324219 364.492188 710.140625 366.714844 704.707031 L 474.667969 441.109375 C 480.6875 426.417969 494.988281 416.820312 510.867188 416.820312 Z M 510.867188 416.820312 " clip-rule="nonzero"/></clipPath><clipPath id="6c2caae53b"><path d="M 365 416.820312 L 622 416.820312 L 622 729 L 365 729 Z M 365 416.820312 " clip-rule="nonzero"/></clipPath><clipPath id="99e30760fc"><path d="M 510.863281 416.820312 L 604.105469 416.820312 C 609.976562 416.820312 615.460938 419.742188 618.734375 424.617188 C 622.003906 429.492188 622.632812 435.675781 620.40625 441.109375 L 512.457031 704.699219 C 506.441406 719.394531 492.136719 728.992188 476.261719 728.992188 L 383.019531 728.992188 C 377.148438 728.992188 371.664062 726.066406 368.390625 721.191406 C 365.121094 716.316406 364.492188 710.132812 366.71875 704.699219 L 474.667969 441.109375 C 480.683594 426.417969 494.988281 416.820312 510.863281 416.820312 Z M 510.863281 416.820312 " clip-rule="nonzero"/></clipPath><clipPath id="695cbdf519"><path d="M 233.746094 308.371094 L 490.242188 308.371094 L 490.242188 621 L 233.746094 621 Z M 233.746094 308.371094 " clip-rule="nonzero"/></clipPath><clipPath id="77c796a7d1"><path d="M 379.296875 308.371094 L 472.539062 308.371094 C 478.410156 308.371094 483.898438 311.296875 487.167969 316.171875 C 490.441406 321.046875 491.066406 327.230469 488.84375 332.664062 L 380.890625 596.261719 C 374.871094 610.953125 360.570312 620.554688 344.691406 620.554688 L 251.445312 620.554688 C 245.578125 620.554688 240.089844 617.628906 236.820312 612.753906 C 233.546875 607.878906 232.921875 601.695312 235.144531 596.261719 L 343.097656 332.664062 C 349.117188 317.96875 363.417969 308.371094 379.296875 308.371094 Z M 379.296875 308.371094 " clip-rule="nonzero"/></clipPath><clipPath id="ef86a14703"><path d="M 233.191406 308.371094 L 491 308.371094 L 491 620.660156 L 233.191406 620.660156 Z M 233.191406 308.371094 " clip-rule="nonzero"/></clipPath><clipPath id="c27ffbf50b"><path d="M 379.292969 308.371094 L 472.535156 308.371094 C 478.40625 308.371094 483.890625 311.296875 487.164062 316.171875 C 490.433594 321.046875 491.0625 327.230469 488.835938 332.664062 L 380.886719 596.253906 C 374.871094 610.945312 360.566406 620.542969 344.691406 620.542969 L 251.449219 620.542969 C 245.578125 620.542969 240.09375 617.621094 236.820312 612.746094 C 233.550781 607.871094 232.921875 601.6875 235.148438 596.253906 L 343.097656 332.664062 C 349.113281 317.96875 363.417969 308.371094 379.292969 308.371094 Z M 379.292969 308.371094 " clip-rule="nonzero"/></clipPath><clipPath id="45bfd241c7"><path d="M 335.222656 59.316406 L 591.71875 59.316406 L 591.71875 372 L 335.222656 372 Z M 335.222656 59.316406 " clip-rule="nonzero"/></clipPath><clipPath id="86cbfe9ffe"><path d="M 480.773438 59.316406 L 574.019531 59.316406 C 579.890625 59.316406 585.375 62.242188 588.644531 67.117188 C 591.917969 71.992188 592.542969 78.175781 590.320312 83.609375 L 482.367188 347.207031 C 476.351562 361.898438 462.046875 371.496094 446.167969 371.496094 L 352.925781 371.496094 C 347.054688 371.496094 341.570312 368.574219 338.296875 363.699219 C 335.027344 358.824219 334.398438 352.640625 336.625 347.207031 L 444.574219 83.609375 C 450.59375 68.914062 464.894531 59.316406 480.773438 59.316406 Z M 480.773438 59.316406 " clip-rule="nonzero"/></clipPath><clipPath id="3fcb456d4f"><path d="M 335 59.316406 L 592 59.316406 L 592 371.605469 L 335 371.605469 Z M 335 59.316406 " clip-rule="nonzero"/></clipPath><clipPath id="c9c46b7949"><path d="M 480.773438 59.316406 L 574.015625 59.316406 C 579.882812 59.316406 585.371094 62.242188 588.640625 67.117188 C 591.914062 71.992188 592.539062 78.175781 590.316406 83.609375 L 482.367188 347.199219 C 476.347656 361.890625 462.046875 371.488281 446.167969 371.488281 L 352.925781 371.488281 C 347.054688 371.488281 341.570312 368.566406 338.300781 363.691406 C 335.027344 358.816406 334.398438 352.632812 336.625 347.199219 L 444.574219 83.609375 C 450.59375 68.914062 464.894531 59.316406 480.773438 59.316406 Z M 480.773438 59.316406 " clip-rule="nonzero"/></clipPath><clipPath id="aae3389093"><path d="M 502.800781 327.179688 L 655.332031 327.179688 L 655.332031 403.449219 L 502.800781 403.449219 Z M 502.800781 327.179688 " clip-rule="nonzero"/></clipPath><clipPath id="8aa50e5421"><path d="M 554.453125 327.179688 L 638.269531 327.179688 C 644.015625 327.179688 649.371094 330.101562 652.484375 334.933594 C 655.597656 339.765625 656.042969 345.847656 653.664062 351.082031 L 640.734375 379.546875 C 634.125 394.101562 619.617188 403.449219 603.632812 403.449219 L 519.8125 403.449219 C 514.066406 403.449219 508.710938 400.527344 505.597656 395.695312 C 502.488281 390.863281 502.042969 384.78125 504.417969 379.546875 L 517.347656 351.082031 C 523.957031 336.527344 538.46875 327.179688 554.453125 327.179688 Z M 554.453125 327.179688 " clip-rule="nonzero"/></clipPath></defs><g clip-path="url(#9caaf5c0ca)"><g clip-path="url(#b07dfdc1ec)"><path fill="#ffffff" d="M 580.9375 308.371094 L 854.53125 308.371094 L 854.53125 620.441406 L 580.9375 620.441406 Z M 580.9375 308.371094 " fill-opacity="1" fill-rule="nonzero"/></g></g><g clip-path="url(#efe8e56e12)"><g clip-path="url(#ffe88eb51e)"><path stroke-linecap="butt" transform="matrix(0.830557, 0, 0, 0.830557, 580.938073, 308.372114)" fill="none" stroke-linejoin="miter" d="M 185.534645 -0.0012285 L 297.794599 -0.0012285 C 304.863463 -0.0012285 311.466713 3.521445 315.407969 9.391001 C 319.344522 15.260557 320.101732 22.705674 317.425629 29.247783 L 187.448835 346.61296 C 180.205954 364.301581 162.987651 375.857269 143.869266 375.857269 L 31.604609 375.857269 C 24.535746 375.857269 17.932496 372.339298 13.991239 366.469742 C 10.054687 360.600187 9.297476 353.155069 11.978283 346.61296 L 141.950373 29.247783 C 149.193254 11.554459 166.416261 -0.0012285 185.534645 -0.0012285 Z M 185.534645 -0.0012285 " stroke="#ffffff" stroke-width="3.612034" stroke-opacity="1" stroke-miterlimit="4"/></g></g><g clip-path="url(#8cd5070837)"><g clip-path="url(#a4ffb9a982)"><path fill="#ffffff" d="M 763.378906 308.371094 L 1036.972656 308.371094 L 1036.972656 620.441406 L 763.378906 620.441406 Z M 763.378906 308.371094 " fill-opacity="1" fill-rule="nonzero"/></g></g><g clip-path="url(#cc985c736b)"><g clip-path="url(#4bf7ba36da)"><path stroke-linecap="butt" transform="matrix(0.830557, 0, 0, 0.830557, 763.381792, 308.372114)" fill="none" stroke-linejoin="miter" d="M 185.531861 -0.0012285 L 297.796518 -0.0012285 C 304.865382 -0.0012285 311.468632 3.521445 315.409888 9.391001 C 319.346441 15.260557 320.103651 22.705674 317.422844 29.247783 L 187.450754 346.61296 C 180.207873 364.301581 162.984866 375.857269 143.866482 375.857269 L 31.606528 375.857269 C 24.537664 375.857269 17.934414 372.339298 13.993158 366.469742 C 10.056605 360.600187 9.299395 353.155069 11.975499 346.61296 L 141.952292 29.247783 C 149.195173 11.554459 166.413477 -0.0012285 185.531861 -0.0012285 Z M 185.531861 -0.0012285 " stroke="#ffffff" stroke-width="3.612034" stroke-opacity="1" stroke-miterlimit="4"/></g></g><g clip-path="url(#99af3dadba)"><g clip-path="url(#35c8de956a)"><path fill="#ffffff" d="M 941.191406 308.371094 L 1214.785156 308.371094 L 1214.785156 620.441406 L 941.191406 620.441406 Z M 941.191406 308.371094 " fill-opacity="1" fill-rule="nonzero"/></g></g><g clip-path="url(#b32936d747)"><g clip-path="url(#77a2a1cb79)"><path stroke-linecap="butt" transform="matrix(0.830557, 0, 0, 0.830557, 941.193583, 308.372114)" fill="none" stroke-linejoin="miter" d="M 185.532715 -0.0012285 L 297.797372 -0.0012285 C 304.866235 -0.0012285 311.469485 3.521445 315.406038 9.391001 C 319.347294 15.260557 320.104505 22.705674 317.423698 29.247783 L 187.451608 346.61296 C 180.204023 364.301581 162.98572 375.857269 143.867336 375.857269 L 31.602679 375.857269 C 24.533815 375.857269 17.930565 372.339298 13.994012 366.469742 C 10.052756 360.600187 9.300249 353.155069 11.976352 346.61296 L 141.948442 29.247783 C 149.196027 11.554459 166.41433 -0.0012285 185.532715 -0.0012285 Z M 185.532715 -0.0012285 " stroke="#ffffff" stroke-width="3.612034" stroke-opacity="1" stroke-miterlimit="4"/></g></g><g clip-path="url(#7ebdc36a9c)"><g clip-path="url(#31032ce153)"><path fill="#ffffff" d="M 356.765625 416.820312 L 630.359375 416.820312 L 630.359375 728.886719 L 356.765625 728.886719 Z M 356.765625 416.820312 " fill-opacity="1" fill-rule="nonzero"/></g></g><g clip-path="url(#6c2caae53b)"><g clip-path="url(#99e30760fc)"><path stroke-linecap="butt" transform="matrix(0.830557, 0, 0, 0.830557, 356.769245, 416.819159)" fill="none" stroke-linejoin="miter" d="M 185.530977 0.00138879 L 297.795634 0.00138879 C 304.864497 0.00138879 311.467747 3.51936 315.409004 9.388915 C 319.345556 15.258471 320.102767 22.703588 317.42196 29.245697 L 187.44987 346.610874 C 180.206989 364.304198 162.983982 375.859886 143.870301 375.859886 L 31.605644 375.859886 C 24.53678 375.859886 17.93353 372.337212 13.992274 366.467656 C 10.055721 360.598101 9.298511 353.152983 11.979317 346.610874 L 141.951408 29.245697 C 149.194289 11.557076 166.417296 0.00138879 185.530977 0.00138879 Z M 185.530977 0.00138879 " stroke="#ffffff" stroke-width="3.612034" stroke-opacity="1" stroke-miterlimit="4"/></g></g><g clip-path="url(#695cbdf519)"><g clip-path="url(#77c796a7d1)"><path fill="#ffffff" d="M 225.195312 308.371094 L 498.789062 308.371094 L 498.789062 620.441406 L 225.195312 620.441406 Z M 225.195312 308.371094 " fill-opacity="1" fill-rule="nonzero"/></g></g><g clip-path="url(#ef86a14703)"><g clip-path="url(#c27ffbf50b)"><path stroke-linecap="butt" transform="matrix(0.830557, 0, 0, 0.830557, 225.199228, 308.372114)" fill="none" stroke-linejoin="miter" d="M 185.53062 -0.0012285 L 297.795277 -0.0012285 C 304.864141 -0.0012285 311.467391 3.521445 315.408647 9.391001 C 319.3452 15.260557 320.10241 22.705674 317.421604 29.247783 L 187.449514 346.61296 C 180.206632 364.301581 162.983626 375.857269 143.869945 375.857269 L 31.605288 375.857269 C 24.536424 375.857269 17.933174 372.339298 13.991918 366.469742 C 10.055365 360.600187 9.298154 353.155069 11.978961 346.61296 L 141.951051 29.247783 C 149.193932 11.554459 166.416939 -0.0012285 185.53062 -0.0012285 Z M 185.53062 -0.0012285 " stroke="#ffffff" stroke-width="3.612034" stroke-opacity="1" stroke-miterlimit="4"/></g></g><g clip-path="url(#45bfd241c7)"><g clip-path="url(#86cbfe9ffe)"><path fill="#ffffff" d="M 326.675781 59.316406 L 600.269531 59.316406 L 600.269531 371.382812 L 326.675781 371.382812 Z M 326.675781 59.316406 " fill-opacity="1" fill-rule="nonzero"/></g></g><g clip-path="url(#3fcb456d4f)"><g clip-path="url(#c9c46b7949)"><path stroke-linecap="butt" transform="matrix(0.830557, 0, 0, 0.830557, 326.676815, 59.316795)" fill="none" stroke-linejoin="miter" d="M 185.53409 -0.000467597 L 297.798747 -0.000467597 C 304.862908 -0.000467597 311.470861 3.522206 315.407414 9.391762 C 319.34867 15.261318 320.101177 22.706435 317.425074 29.248544 L 187.452983 346.613721 C 180.205399 364.302342 162.987095 375.858029 143.868711 375.858029 L 31.604054 375.858029 C 24.53519 375.858029 17.93194 372.340059 13.995387 366.470503 C 10.054131 360.600947 9.296921 353.15583 11.977728 346.613721 L 141.949818 29.248544 C 149.197402 11.55522 166.415706 -0.000467597 185.53409 -0.000467597 Z M 185.53409 -0.000467597 " stroke="#ffffff" stroke-width="3.612034" stroke-opacity="1" stroke-miterlimit="4"/></g></g><g clip-path="url(#aae3389093)"><g clip-path="url(#8aa50e5421)"><path fill="#ffffff" d="M 493.5625 327.179688 L 664.570312 327.179688 L 664.570312 403.449219 L 493.5625 403.449219 Z M 493.5625 327.179688 " fill-opacity="1" fill-rule="nonzero"/></g></g></svg>